<?xml version="1.0" encoding="UTF-8"?>
<svg id="gradient" xmlns="http://www.w3.org/2000/svg" xmlns:xlink="http://www.w3.org/1999/xlink" viewBox="0 0 369.7 369.7">
  <defs>
    <style>
      .cls-1, .cls-2 {
        isolation: isolate;
      }

      .cls-2 {
        font-family: TengwarAnnatarGlaemscrafuItalic, 'Tengwar Annatar Glaemscrafu';
        font-size: 24.65px;
      }

      .cls-2, .cls-3 {
        fill: #fff;
      }

      .cls-4 {
        fill: url(#radial-gradient);
      }

      .cls-4, .cls-3 {
        stroke-width: 0px;
      }
    </style>
    <radialGradient id="radial-gradient" cx="184.85" cy="811.18" fx="184.85" fy="811.18" r="178.28" gradientTransform="translate(0 996.04) scale(1 -1)" gradientUnits="userSpaceOnUse">
      <stop offset="0" stop-color="#3c5485"/>
      <stop offset="1" stop-color="#212f4b"/>
    </radialGradient>
  </defs>
  <g id="gradient-2">
    <circle class="cls-4" cx="184.85" cy="184.86" r="178.28"/>
    <path class="cls-3" d="M184.85,0C82.76,0,0,82.77,0,184.85s82.76,184.85,184.85,184.85,184.85-82.75,184.85-184.85S286.93,0,184.85,0ZM184.85,362.31c-97.99,0-177.45-79.44-177.45-177.45S86.85,7.4,184.85,7.4s177.45,79.46,177.45,177.45-79.44,177.45-177.45,177.45h0Z"/>
    <g class="cls-1">
      <text class="cls-2" transform="translate(131.56 51.89) rotate(-18.36) scale(.75 1)"><tspan x="0" y="0">w</tspan></text>
    </g>
    <g class="cls-1">
      <text class="cls-2" transform="translate(148.91 46.35) rotate(-12.23) scale(.75 1)"><tspan x="0" y="0">h</tspan></text>
    </g>
    <g class="cls-1">
      <text class="cls-2" transform="translate(161.09 43.88) rotate(-9.5) scale(.75 1)"><tspan x="0" y="0">M</tspan></text>
    </g>
    <g class="cls-1">
      <text class="cls-2" transform="translate(162.12 43.49) rotate(-5.92) scale(.75 1)"><tspan x="0" y="0">j</tspan></text>
    </g>
    <g class="cls-1">
      <text class="cls-2" transform="translate(178.58 41.79) rotate(.94) scale(.75 1)"><tspan x="0" y="0">2</tspan></text>
    </g>
    <g class="cls-1">
      <text class="cls-2" transform="translate(196.77 42.16) rotate(8.03) scale(.75 1)"><tspan x="0" y="0">b</tspan></text>
    </g>
    <g class="cls-1">
      <text class="cls-2" transform="translate(214.23 44.93) rotate(11.8) scale(.75 1)"><tspan x="0" y="0">%</tspan></text>
    </g>
    <g class="cls-1">
      <text class="cls-2" transform="translate(228.18 48.33) rotate(21.01) scale(.75 1)"><tspan x="0" y="0">s</tspan></text>
    </g>
    <g class="cls-1">
      <text class="cls-2" transform="translate(244.81 54.98) rotate(26.56) scale(.75 1)"><tspan x="0" y="0">9</tspan></text>
    </g>
    <g class="cls-1">
      <text class="cls-2" transform="translate(253.53 59.46) rotate(28.76) scale(.75 1)"><tspan x="0" y="0">N</tspan></text>
    </g>
    <g class="cls-1">
      <text class="cls-2" transform="translate(254.57 59.74) rotate(32.63) scale(.75 1)"><tspan x="0" y="0">5</tspan></text>
    </g>
    <g class="cls-1">
      <text class="cls-2" transform="translate(280.04 78.11) rotate(43.59) scale(.75 1)"><tspan x="0" y="0">7</tspan></text>
    </g>
    <g class="cls-1">
      <text class="cls-2" transform="translate(287.54 85.05) rotate(49.24) scale(.75 1)"><tspan x="0" y="0">5</tspan></text>
    </g>
    <g class="cls-1">
      <text class="cls-2" transform="translate(299.24 99.12) rotate(53.1) scale(.75 1)"><tspan x="0" y="0">^</tspan></text>
    </g>
    <g class="cls-1">
      <text class="cls-2" transform="translate(300.06 99.85) rotate(56.67) scale(.75 1)"><tspan x="0" y="0">j</tspan></text>
    </g>
    <g class="cls-1">
      <text class="cls-2" transform="translate(309.03 114.01) rotate(60.24) scale(.75 1)"><tspan x="0" y="0">#</tspan></text>
    </g>
    <g class="cls-1">
      <text class="cls-2" transform="translate(309.78 114.79) rotate(64.14) scale(.75 1)"><tspan x="0" y="0">2</tspan></text>
    </g>
    <g class="cls-1">
      <text class="cls-2" transform="translate(321.92 143.87) rotate(75.25) scale(.75 1)"><tspan x="0" y="0">7</tspan></text>
    </g>
    <g class="cls-1">
      <text class="cls-2" transform="translate(324.46 153.93) rotate(78.44) scale(.75 1)"><tspan x="0" y="0">`</tspan></text>
    </g>
    <g class="cls-1">
      <text class="cls-2" transform="translate(325.53 159.36) rotate(79.79) scale(.75 1)"><tspan x="0" y="0">V</tspan></text>
    </g>
    <g class="cls-1">
      <text class="cls-2" transform="translate(325.76 160.57) rotate(81.15) scale(.75 1)"><tspan x="0" y="0">`</tspan></text>
    </g>
    <g class="cls-1">
      <text class="cls-2" transform="translate(326.58 166.07) rotate(82.52) scale(.75 1)"><tspan x="0" y="0">M</tspan></text>
    </g>
    <g class="cls-1">
      <text class="cls-2" transform="translate(326.92 167.11) rotate(86.08) scale(.75 1)"><tspan x="0" y="0">j</tspan></text>
    </g>
    <g class="cls-1">
      <text class="cls-2" transform="translate(327.8 183.85) rotate(89.07) scale(.75 1)"><tspan x="0" y="0">$</tspan></text>
    </g>
    <g class="cls-1">
      <text class="cls-2" transform="translate(327.29 198.27) rotate(97.61) scale(.75 1)"><tspan x="0" y="0">1</tspan></text>
    </g>
    <g class="cls-1">
      <text class="cls-2" transform="translate(325.71 210.58) rotate(103.45) scale(.75 1)"><tspan x="0" y="0">j</tspan></text>
    </g>
    <g class="cls-1">
      <text class="cls-2" transform="translate(321.54 226.82) rotate(107.04) scale(.75 1)"><tspan x="0" y="0">^</tspan></text>
    </g>
    <g class="cls-1">
      <text class="cls-2" transform="translate(321.32 227.92) rotate(109.78) scale(.75 1)"><tspan x="0" y="0">z</tspan></text>
    </g>
    <g class="cls-1">
      <text class="cls-2" transform="translate(317 239.52) rotate(113.36) scale(.75 1)"><tspan x="0" y="0">~</tspan></text>
    </g>
    <g class="cls-1">
      <text class="cls-2" transform="translate(314.75 244.6) rotate(114.73) scale(.75 1)"><tspan x="0" y="0">B</tspan></text>
    </g>
    <g class="cls-1">
      <text class="cls-2" transform="translate(314.55 245.67) rotate(118.62) scale(.75 1)"><tspan x="0" y="0">5</tspan></text>
    </g>
    <g class="cls-1">
      <text class="cls-2" transform="translate(305.5 261.57) rotate(122.5) scale(.75 1)"><tspan x="0" y="0">$</tspan></text>
    </g>
    <g class="cls-1">
      <text class="cls-2" transform="translate(304.95 262.59) rotate(125.01) scale(.75 1)"><tspan x="0" y="0">8</tspan></text>
    </g>
    <g class="cls-1">
      <text class="cls-2" transform="translate(290.12 281.95) rotate(136.13) scale(.75 1)"><tspan x="0" y="0">t</tspan></text>
    </g>
    <g class="cls-1">
      <text class="cls-2" transform="translate(277.05 294.44) rotate(143.35) scale(.75 1)"><tspan x="0" y="0">2</tspan></text>
    </g>
    <g class="cls-1">
      <text class="cls-2" transform="translate(262.13 305.14) rotate(147.23) scale(.75 1)"><tspan x="0" y="0">&apos;</tspan></text>
    </g>
    <g class="cls-1">
      <text class="cls-2" transform="translate(261.04 305.84) rotate(147.75) scale(.75 1)"><tspan x="0" y="0">%</tspan></text>
    </g>
    <g class="cls-1">
      <text class="cls-2" transform="translate(260.21 306.61) rotate(151.34) scale(.75 1)"><tspan x="0" y="0">j</tspan></text>
    </g>
    <g class="cls-1">
      <text class="cls-2" transform="translate(245.38 314.4) rotate(154.92) scale(.75 1)"><tspan x="0" y="0">L</tspan></text>
    </g>
    <g class="cls-1">
      <text class="cls-2" transform="translate(244.3 314.94) rotate(156.67) scale(.75 1)"><tspan x="0" y="0">\</tspan></text>
    </g>
    <g class="cls-1">
      <text class="cls-2" transform="translate(237.55 317.85) rotate(160.11) scale(.75 1)"><tspan x="0" y="0">]</tspan></text>
    </g>
    <g class="cls-1">
      <text class="cls-2" transform="translate(228.28 321.09) rotate(162.33) scale(.75 1)"><tspan x="0" y="0">V</tspan></text>
    </g>
    <g class="cls-1">
      <text class="cls-2" transform="translate(227.22 321.54) rotate(165.09) scale(.75 1)"><tspan x="0" y="0">6</tspan></text>
    </g>
    <g class="cls-1">
      <text class="cls-2" transform="translate(215.28 324.68) rotate(170.06) scale(.75 1)"><tspan x="0" y="0">3</tspan></text>
    </g>
    <g class="cls-1">
      <text class="cls-2" transform="translate(189.95 327.97) rotate(-178.62) scale(.75 1)"><tspan x="0" y="0">5</tspan></text>
    </g>
    <g class="cls-1">
      <text class="cls-2" transform="translate(165.08 326.45) rotate(-172.12) scale(.75 1)"><tspan x="0" y="0">%</tspan></text>
    </g>
    <g class="cls-1">
      <text class="cls-2" transform="translate(157.44 325.45) rotate(-165.54) scale(.75 1)"><tspan x="0" y="0">@</tspan></text>
    </g>
    <g class="cls-1">
      <text class="cls-2" transform="translate(127.45 315.94) rotate(-154.03) scale(.75 1)"><tspan x="0" y="0">3</tspan></text>
    </g>
    <g class="cls-1">
      <text class="cls-2" transform="translate(116.37 310.5) rotate(-149.07) scale(.75 1)"><tspan x="0" y="0">6</tspan></text>
    </g>
    <g class="cls-1">
      <text class="cls-2" transform="translate(105.73 303.93) rotate(-146.35) scale(.75 1)"><tspan x="0" y="0">%</tspan></text>
    </g>
    <g class="cls-1">
      <text class="cls-2" transform="translate(104.7 303.56) rotate(-142.46) scale(.75 1)"><tspan x="0" y="0">2</tspan></text>
    </g>
    <g class="cls-1">
      <text class="cls-2" transform="translate(80.76 283.19) rotate(-130.07) scale(.75 1)"><tspan x="0" y="0">x</tspan></text>
    </g>
    <g class="cls-1">
      <text class="cls-2" transform="translate(65.81 264.02) rotate(-123.68) scale(.75 1)"><tspan x="0" y="0">(</tspan></text>
    </g>
    <g class="cls-1">
      <text class="cls-2" transform="translate(65.08 262.92) rotate(-123.15) scale(.75 1)"><tspan x="0" y="0">E</tspan></text>
    </g>
    <g class="cls-1">
      <text class="cls-2" transform="translate(60.93 256.34) rotate(-117.98) scale(.75 1)"><tspan x="0" y="0">8</tspan></text>
    </g>
    <g class="cls-1">
      <text class="cls-2" transform="translate(55.69 246.4) rotate(-113.43) scale(.75 1)"><tspan x="0" y="0">i</tspan></text>
    </g>
    <g class="cls-1">
      <text class="cls-2" transform="translate(51.24 235.8) rotate(-110.88) scale(.75 1)"><tspan x="0" y="0">P</tspan></text>
    </g>
    <g class="cls-1">
      <text class="cls-2" transform="translate(50.79 234.6) rotate(-110.36) scale(.75 1)"><tspan x="0" y="0">B</tspan></text>
    </g>
    <g class="cls-1">
      <text class="cls-2" transform="translate(48.24 227.08) rotate(-107.16) scale(.75 1)"><tspan x="0" y="0">(</tspan></text>
    </g>
    <g class="cls-1">
      <text class="cls-2" transform="translate(47.8 226.03) rotate(-104.38) scale(.75 1)"><tspan x="0" y="0">1</tspan></text>
    </g>
    <g class="cls-1">
      <text class="cls-2" transform="translate(44.83 213.8) rotate(-101.62) scale(.75 1)"><tspan x="0" y="0">é</tspan></text>
    </g>
    <g class="cls-1">
      <text class="cls-2" transform="translate(44.57 212.59) rotate(-100.25) scale(.75 1)"><tspan x="0" y="0">`</tspan></text>
    </g>
    <g class="cls-1">
      <text class="cls-2" transform="translate(43.63 207.13) rotate(-98.89) scale(.75 1)"><tspan x="0" y="0">N</tspan></text>
    </g>
    <g class="cls-1">
      <text class="cls-2" transform="translate(42.01 192.76) rotate(-90.93) scale(.75 1)"><tspan x="0" y="0">3</tspan></text>
    </g>
    <g class="cls-1">
      <text class="cls-2" transform="translate(41.86 180.45) rotate(-86.01) scale(.75 1)"><tspan x="0" y="0">y</tspan></text>
    </g>
    <g class="cls-1">
      <text class="cls-2" transform="translate(42.89 167.97) rotate(-83.29) scale(.75 1)"><tspan x="0" y="0">Y</tspan></text>
    </g>
    <g class="cls-1">
      <text class="cls-2" transform="translate(42.94 166.83) rotate(-80.78) scale(.75 1)"><tspan x="0" y="0">8</tspan></text>
    </g>
    <g class="cls-1">
      <text class="cls-2" transform="translate(44.58 155.82) rotate(-74.87) scale(.75 1)"><tspan x="0" y="0">2</tspan></text>
    </g>
    <g class="cls-1">
      <text class="cls-2" transform="translate(49.7 138.16) rotate(-70.94) scale(.75 1)"><tspan x="0" y="0">P</tspan></text>
    </g>
    <g class="cls-1">
      <text class="cls-2" transform="translate(50.13 136.94) rotate(-70.42) scale(.75 1)"><tspan x="0" y="0">#</tspan></text>
    </g>
    <g class="cls-1">
      <text class="cls-2" transform="translate(55.54 123.59) rotate(-62.33) scale(.75 1)"><tspan x="0" y="0">e</tspan></text>
    </g>
    <g class="cls-1">
      <text class="cls-2" transform="translate(61.28 112.72) rotate(-57.39) scale(.75 1)"><tspan x="0" y="0">y</tspan></text>
    </g>
    <g class="cls-1">
      <text class="cls-2" transform="translate(68.15 102.28) rotate(-54.67) scale(.75 1)"><tspan x="0" y="0">Y</tspan></text>
    </g>
    <g class="cls-1">
      <text class="cls-2" transform="translate(68.72 101.3) rotate(-51.94) scale(.75 1)"><tspan x="0" y="0">6</tspan></text>
    </g>
    <g class="cls-1">
      <text class="cls-2" transform="translate(76.38 91.58) rotate(-47) scale(.75 1)"><tspan x="0" y="0">1</tspan></text>
    </g>
    <g class="cls-1">
      <text class="cls-2" transform="translate(84.75 82.45) rotate(-40.92) scale(.75 1)"><tspan x="0" y="0">5</tspan></text>
    </g>
    <g class="cls-1">
      <text class="cls-2" transform="translate(98.46 70.67) rotate(-33.89) scale(.71 1)"><tspan x="0" y="0">5</tspan></text>
    </g>
    <g class="cls-1">
      <text class="cls-2" transform="translate(112.63 61.16) rotate(-26.82) scale(.71 1)"><tspan x="0" y="0">〤</tspan></text>
    </g>
    <g class="cls-1">
      <text class="cls-2" transform="translate(112.93 61.27) rotate(-29.33) scale(.71 1)"><tspan x="0" y="0">-</tspan></text>
    </g>
    <g>
      <path class="cls-3" d="M210.37,102.89h0c1.99,0,3.6-1.62,3.6-3.61h0c0-.97-.38-1.88-1.06-2.56s-1.58-1.05-2.55-1.05h0c-.96,0-1.87.38-2.55,1.06-.68.68-1.05,1.59-1.05,2.56,0,1.99,1.62,3.6,3.6,3.6h0Z"/>
      <path class="cls-3" d="M212.19,104.72c0,.96.38,1.87,1.06,2.55s1.59,1.05,2.55,1.05h0c1.99,0,3.6-1.62,3.6-3.61h0c0-.97-.38-1.88-1.06-2.56s-1.58-1.05-2.55-1.05h0c-.96,0-1.87.38-2.55,1.06s-1.05,1.59-1.05,2.56Z"/>
      <path class="cls-3" d="M204.85,107.91h0c1.99,0,3.6-1.62,3.6-3.61h0c0-.97-.38-1.88-1.06-2.56s-1.57-1.08-2.55-1.05c-.96,0-1.87.38-2.55,1.06-.68.68-1.05,1.59-1.05,2.56s.38,1.87,1.06,2.55,1.58,1.05,2.55,1.05Z"/>
      <path class="cls-3" d="M213.89,109.72c0-.96-.38-1.87-1.06-2.55s-1.6-1.01-2.55-1.05c-1.99,0-3.6,1.62-3.6,3.62,0,.96.38,1.87,1.06,2.55s1.58,1.05,2.55,1.05h0c.96,0,1.87-.38,2.55-1.06.68-.68,1.05-1.59,1.05-2.55h-.48.48Z"/>
      <path class="cls-3" d="M151.61,233.82c0-1.99-1.62-3.6-3.6-3.6h0c-1.99,0-3.6,1.62-3.6,3.62,0,.96.38,1.87,1.06,2.55.68.68,1.58,1.05,2.55,1.05h0c.96,0,1.87-.38,2.55-1.06s1.05-1.59,1.05-2.55h-.48.48,0Z"/>
      <path class="cls-3" d="M157.05,239.25c0-1.99-1.62-3.6-3.6-3.6h0c-1.99,0-3.6,1.62-3.6,3.62s1.62,3.6,3.6,3.6c.96.06,1.87-.38,2.55-1.06.68-.68,1.05-1.59,1.05-2.55h-.48.48Z"/>
      <path class="cls-3" d="M146.1,238.85h0c0-.97-.38-1.88-1.06-2.56s-1.58-1.05-2.55-1.05h0c-1.99,0-3.6,1.62-3.6,3.62,0,.96.38,1.87,1.06,2.55.68.68,1.58,1.05,2.55,1.05h0c.96,0,1.87-.38,2.55-1.06s1.05-1.59,1.05-2.55Z"/>
      <path class="cls-3" d="M147.93,240.68h0c-1.99,0-3.6,1.62-3.6,3.62,0,.96.38,1.87,1.06,2.55.68.68,1.58,1.05,2.55,1.05h0c.96,0,1.87-.38,2.55-1.06s1.05-1.59,1.05-2.55h0c0-.97-.38-1.88-1.06-2.56s-1.58-1.05-2.55-1.05Z"/>
      <path class="cls-3" d="M262.85,144.7c-14.06-7.93-19.37-20-22.22-26.48-1.43-3.25-2.22-5.04-3.46-5.15-.82-.06-1.4.65-1.77,1.19-3.24,4.86-34.16,3.4-46.23,2.4.48-16.25.86-27.69.88-28.07l-1.07-.35-10.26,14.75c-5.29-2.39-8.32-3.13-9.02-2.22-.54.71.25,1.66.54,2.01,2.36,2.84,2.96,10.16,3.11,13.59-12.03.43-41.71.45-44.93-4.37-.69-1.04-1.19-1.72-1.86-1.6-.66.11-.85.82-1.19,2.12-1,3.79-3.33,12.68-18.14,21.03-3.1,1.75-3.47,2.53-3.4,3.12.03.23.17.65.82.84.22.06.53.1.9.1,4.93,0,22.02-5.37,27.11-11.74,2.84-3.55,28.02-2.95,40.66-2.26-.02,1.2-.03,2.56-.05,4.1-4.74-.09-23.04.22-31.96,9.51-3.67,3.83-5.27,8.72-4.74,14.54.69,7.63,3.57,13.38,8.53,17.09,6.43,4.8,15.16,5.24,21.55,4.71-28.45,31.05-40.2,31.21-52.62,31.37-1.91.02-3.88.05-5.9.19-1.93.14-2.59.22-2.59.9,0,.59.47.77,2.52.92.72.24,6.8,2.32,12.42,4.84l1.8.81c3.68,1.67,6.04,2.74,8.47,2.74,3.13,0,6.39-1.77,12.73-6.32,5.28-3.78,8.8-7.89,14.12-14.12l.33-.38c7.52-8.79,12.02-13.72,14.72-16.51-.29,25.41-.56,52.24-.56,65.67,0,24.77-10.13,40.61-12.37,41.49,0-.11,0-.29.04-.57.87-5.49-2.39-7.08-5.26-8.47-.65-.32-1.33-.65-1.93-1.01-1.43-.86-4.02.02-5.95,1.27-2.78,1.81-4.28,4.27-4,6.57.35,2.85,3.2,5.22,8.47,7.04,1.63.57,3.26.85,4.87.85,2.58,0,5.13-.73,7.61-2.18,10.5-6.18,16.51-23.43,17.27-27.76.92-5.21,2.36-7.83,3.52-9.52.45-.65.54-1.3.6-1.73,0-.04,0-.09.02-.14.12.04.31.13.61.28,16.45,8.55,28.19.41,29.21-.33,2.82-1.17,2.64-1.94,2.58-2.23-.17-.74-1.13-.97-3.56-.84-6.17.31-24.15-1.97-26.06-16.29-.74-5.56-.59-27.22-.11-51.98.29.16.58.23.85.1.12-.06.22-.14.29-.23,2.42,2.37,7.11,7.38,16.15,17.95,1.4,1.64,2.76,3.33,4.06,4.97,3.84,4.8,7.47,9.33,11.74,11.87,8.21,4.88,15.82,6.03,21.16,6.03,4.68,0,7.6-.88,7.64-.89,2.82-.56,2.79-1.13,2.77-1.47-.04-.7-.88-.89-2.51-1-14.31-1.02-44-26.61-56.61-40.65-.05-.05-.09-.1-.14-.15,7.22,1.06,16.17.92,22.75-4,4.93-3.68,7.8-9.56,8.52-17.46.55-6.02-1.07-11.05-4.81-14.93-9.13-9.48-27.74-9.21-30.67-9.1.05-1.72.1-3.42.14-5.08,12.93,0,39.96.78,42.86,4.4,5.22,6.53,30.55,19.18,33.45,19.18.06,0,.11,0,.16-.02l.41-.14.05-.39c.05-.44-.05-.71-3.02-2.38l-.04-.03ZM172.77,166.59c-3.19.85-12.92,2.93-18.99-1.59-3.65-2.72-5.39-7.41-5.19-13.95.19-5.96,1.8-10.39,4.77-13.16,4.55-4.24,11.6-3.97,16.26-3.79.89.03,1.7.07,2.42.07.41,0,.78-.02,1.13-.06-.11,8.65-.26,20.11-.41,32.48h.01ZM188.63,135.36c.57.15,1.28.23,2.14.23.73,0,1.54-.03,2.41-.07,4.25-.17,10.08-.41,14.02,3.26,2.92,2.72,4.51,7.33,4.71,13.69.22,6.87-1.53,11.69-5.19,14.35-6.14,4.45-15.91,1.49-17.51.96-.47-.98-.91-1.9-1.33-2.77.22-10.02.48-20.16.74-29.65h0Z"/>
      <path class="cls-3" d="M178.22,93.63l.59.49.32-.7c1.7-3.77,6.78-13.65,9.77-14.15,3.29-.55,5.84-6.26,6.73-9.2.67-2.2.36-2.49.16-2.67l-.28-.21-.25.02c-.53.03-.99.56-2.36,2.23-2.33,2.84-6.68,8.13-10.95,7.69-3.19-.32-6.1,1.52-7.43,4.69-1.31,3.13-1.03,7.88,3.7,11.82h0Z"/>
    </g>
  </g>
</svg>