<?xml version="1.0" encoding="UTF-8"?>
<svg id="gradient" xmlns="http://www.w3.org/2000/svg" viewBox="0 0 1600 362.33">
  <defs>
    <style>
      .cls-1 {
        fill: #fff;
        stroke-width: 0px;
      }
    </style>
  </defs>
  <path class="cls-1" d="M260.75,249.32c-6.21-5.59-14.4-16.26-18.19-23.72-7.6-14.98-15.92-31.98-23.04-47.94-12.59-28.24-25.15-56.47-37.7-84.7-10.34-23.25-23.27-48.73-32.83-66.97-6.32-12.05-22.63-21.9-36.24-21.9h-22.96c-5.87,0-7.1,3.21-2.74,7.14l3.8,3.43c3.53,3.19,8.01,9.36,9.94,13.7l.35.8C77.02,86.58,21.44,211.07.98,253.28c-2.61,5.38.16,9.79,6.14,9.79h31.24c5.87,0,7.1-3.21,2.74-7.13h0c-8.59-7.73-11.26-20.11-6.55-30.66,7.69-17.24,25.15-34.78,32.2-38.91,7.11-4.16,21.73-6.35,30.76-7.29,16.29-1.7,34.55-1.13,54.5,2.62,11.03,2.07,24.11,12.02,29.06,22.1,6.19,12.58,13.92,28.23,19.92,40.34,5.75,11.61,17.56,18.95,30.51,18.96l33.92.04c5.88,0,7.11-3.2,2.74-7.13l-7.42-6.68h.01ZM64.8,157.33l46.7-104.9c10.47,23.55,24.67,55.45,35.21,79.12,4.52,10.13,10.61,23.11,17.24,36.99-29.87-10.09-65.12-13.39-99.16-11.2h.01Z"/>
  <path class="cls-1" d="M1143.05,95.28c-18.57,0-53.21,6.53-68.21,31.35v-6.8c0-11.25-9.21-20.46-20.46-20.46h-33.28c-5.86,0-7.1,3.21-2.74,7.13l4.61,4.15c3.47,3.12,6.5,9.48,6.74,14.14,2.13,41.04,2.82,115.25,2,134.01-.1,2.33,1.76,4.26,4.09,4.26h41.76v-90.15c0-19.52,9.27-35.51,20.98-45.73,5.94-5.18,13.4-7.6,19.65-7.6,8.38,0,16.61,5.33,25.08,22.93l9.93-1.14c1.3-.15,2.46-.9,3.1-2.05,5.24-9.48,12.55-29.11,11.74-32.64-.78-3.44-13.62-11.39-25.01-11.39h.02Z"/>
  <path class="cls-1" d="M390.28,95.28c-18.57,0-53.21,6.53-68.21,31.35v-6.8c0-11.25-9.21-20.46-20.46-20.46h-33.28c-5.86,0-7.1,3.21-2.74,7.13l4.61,4.15c3.47,3.12,6.5,9.48,6.74,14.14,2.13,41.04,2.82,115.25,2,134.01-.1,2.35,1.74,4.26,4.09,4.26h41.76v-90.15c0-19.52,9.27-35.51,20.98-45.73,5.94-5.18,13.4-7.6,19.65-7.6,8.38,0,16.61,5.33,25.08,22.93l9.93-1.14c1.3-.15,2.46-.9,3.1-2.05,5.24-9.48,12.55-29.11,11.74-32.64-.78-3.44-13.62-11.39-25.01-11.39h.02Z"/>
  <path class="cls-1" d="M1331.78,255.96h0c-4.87-4.39-8.93-13.33-9.02-19.88-.33-22.81-.48-56.52-.48-80.18,0-41.16-35.47-60.62-71.39-60.62-32.5,0-57.03,7.14-71.44,20.86,1.01,4.2,4.09,9.36,7.73,13.08,1.32,1.35,3.72,1.56,5.25.45,12.74-9.26,26.43-13.94,40.6-13.94,24.44,0,42.87,16.47,42.87,40.51,0,0,0-1.4,0,.4v.54c-57.94,8.69-107.74,29.19-107.74,52.13,0,36.99,33.93,57.82,45.69,57.82s49.05-6.89,63.78-12.8c.3,1.68.73,3.73,1.15,5.55.41,1.74,2.2,3.16,3.98,3.16h46.29c5.83,0,7.06-3.19,2.72-7.1v.02ZM1275.89,229.56c0,2.61-2,5.48-4.45,6.4-8.23,3.09-22.38,6.63-28.63,6.63-19.95,0-28.28-20.94-28.28-35.9,0-10.42,17.62-23.16,61.36-28.39v51.26h0Z"/>
  <path class="cls-1" d="M775.2,255.96h0c-4.87-4.39-8.93-13.33-9.02-19.88-.33-22.81-.48-56.52-.48-80.18,0-41.16-35.47-60.62-71.39-60.62-32.5,0-57.03,7.14-71.44,20.86,1.01,4.2,4.09,9.36,7.73,13.08,1.32,1.35,3.72,1.56,5.25.45,12.74-9.26,26.43-13.94,40.6-13.94,24.44,0,42.87,16.47,42.87,40.51,0,0,0-1.4,0,.4v.54c-57.94,8.69-107.74,29.19-107.74,52.13,0,36.99,33.93,57.82,45.69,57.82s49.05-6.89,63.78-12.8c.3,1.68.73,3.73,1.15,5.55s2.2,3.16,3.98,3.16h46.29c5.83,0,7.06-3.19,2.72-7.1v.02ZM719.31,229.56c0,2.61-2,5.48-4.45,6.4-8.23,3.09-22.38,6.63-28.63,6.63-19.95,0-28.28-20.94-28.28-35.9,0-10.42,17.62-23.16,61.36-28.39v51.26h0Z"/>
  <path class="cls-1" d="M1003.25,244.22c-28.15,17.9-44.21,22.93-85.39,22.93-66.31,0-128.19-40.21-128.19-128.94,0-55.72,33.49-100.53,46.53-111.71C849.08,15.46,895.42,0,938.13,0,968.67,0,994.93,6.82,1007.5,16.63c-2.05,12.24-6.51,24.23-11.77,33.47-.55.99-1.94,1.89-3.07,2.01l-5.39.61c-8.83-18.39-26.03-33.86-53.31-33.86-52.86,0-93.83,46.01-93.83,111.65,0,72.57,42.87,116.17,92.69,116.17,25.29,0,43.99-8.63,62.9-20.52,1.63-1.02,4.01-.6,5.23.87,2.15,2.54,3.9,5.71,5.15,9.34.94,2.73-.43,6.27-2.86,7.84h.01Z"/>
  <path class="cls-1" d="M1600,249.35c-8.47,9.72-25,17.8-50.24,17.8-31.39,0-66.88-20.22-65.82-54.82.29-9.19.8-66.39.8-92.5h-17.43c-2.13-3.17-3.46-7.23-4.08-11.7-.31-2.42,1.42-4.48,3.85-4.64,27.76-1.62,47.66-20.02,47.66-44.04,4.91.53,9.69,1.62,13.81,3.29,1.41.57,2.56,2.28,2.56,3.8v32.82h43.54v13.64c0,3.75-3.07,6.82-6.82,6.82h-29.9c-3.75,0-6.82,3.07-6.82,6.82v81.91c0,21.02,10.64,38.3,32.01,38.3,9.42,0,18.08-3.09,24.62-8.46,1.6-1.31,4.06-1.27,5.54.17,2.96,2.87,5.4,6.42,6.71,10.79h0Z"/>
  <path class="cls-1" d="M506.93,246.69c-31,0-48.94-34.83-48.94-75.19,0-14.94,17.36-32.59,69.87-39.91,6.68,15.01,10.24,22.98,12.3,27.63,7.45,16.73,11.1,29.03,11.1,42.45,0,23.3-13.94,45.02-44.33,45.02h0ZM588.57,150.54l-50.16-112.66c-3.83-8.59-3.83-22.66,0-31.25h0c2.38-5.35-.05-7.79-5.4-5.4l-21.57,9.59c-17.21,7.66-24.96,27.81-17.3,45.02,10.52,23.62,22.57,50.68,25.04,56.25-57.56,9.75-107.57,37.01-107.57,62.19,0,57.62,32.78,92.86,74.3,92.86,27.42,0,68.74-8.71,87.91-29.72,18.33-20.09,28.01-57.1,14.74-86.89h.01Z"/>
  <path class="cls-1" d="M1505.2,13.83c-2.05,12.26-6.51,24.23-11.77,33.49-.56.99-1.94,1.88-3.07,2.01l-8.2.94c-3.29-18.59-15.47-29.82-31.58-29.82-18.86,0-38.78,15.02-38.78,46.67v32.24h41.71v13.64c0,3.75-3.07,6.82-6.82,6.82h-28.07c-3.75,0-6.82,3.07-6.82,6.82v179.01c0,13.82-18.43,42.28-48.42,55.8-5.17,2.33-7.71-.16-5.43-5.35,4-9.12,7.19-21.44,7.78-29.72.57-8.03.36-192.52,0-206.56h-12.42c-5.05,0-6.43-3.07-3.04-6.82l10.5-11.68c2.56-2.83,4.64-8.25,4.64-12.07,0-19.01,4.86-35.72,10.93-48.58,6.07-12.87,13.33-21.89,18.14-25.56,10.09-7.67,38.11-15.11,57.84-15.11,27.95,0,42.63,4.88,52.86,13.83h.02Z"/>
</svg>