<svg width="5968" height="5968" viewBox="0 0 5968 5968" fill="none" xmlns="http://www.w3.org/2000/svg">
<g clip-path="url(#clip0_281_211)">
<path fill-rule="evenodd" clip-rule="evenodd" d="M404.036 1513.67L404.038 1513.67L404.038 1513.67C404.038 1513.67 1350.85 2216.54 2007.85 2711.7C2276.64 2914.28 2496.92 3082.09 2584.03 3152.78C2884.06 3396.28 2929.03 3403.28 2986.53 3403.28V3403.5C2990.11 3403.5 2993.63 3403.47 2997.17 3403.36C3050.59 3401.7 3107.69 3381.28 3388.97 3153C3476.07 3082.3 3696.36 2914.49 3965.15 2711.92C4622.15 2216.76 5568.96 1513.88 5568.96 1513.88L5569.91 1514.83C5758.15 1576.5 5886.89 1707.13 5945.72 1888.75L2986.47 4848V4847.72L27.2812 1888.53C86.1075 1706.92 214.851 1576.28 403.09 1514.61L404.036 1513.67Z" fill="white"/>
</g>
<defs>
<clipPath id="clip0_281_211">
<rect width="5968" height="5968" fill="white"/>
</clipPath>
</defs>
</svg>
