<svg width="5968" height="5968" viewBox="0 0 5968 5968" fill="none" xmlns="http://www.w3.org/2000/svg">
<path d="M572.062 5396.3C478.576 5301.31 262 5116 262 5116L4080.9 1219.86L4749.33 1174.68L4749.33 1887.9C4119.85 2503 2084.98 4483.77 852.52 5706.18C852.52 5706.18 665.548 5489.73 572.062 5396.3Z" fill="white"/>
<path d="M4080.86 1219.65C3709.3 1141.41 825.907 880.189 825.907 880.189L825.907 878.632C721.511 673.088 723.07 459.758 824.349 262L5706 262L5706 5142.11C5508.12 5244.89 5294.65 5244.89 5088.98 5140.56C5088.98 5140.56 4812.56 2230.49 4749.3 1887.67C4686.04 1544.84 4604.04 1485.28 4549.47 1429.96C4494.9 1374.64 4452.42 1297.89 4080.86 1219.65Z" fill="white"/>
</svg>
